<svg xmlns="http://www.w3.org/2000/svg" viewBox="0 0 1000.62 163.32"><defs><style>.cls-1,.cls-3,.cls-4{fill:#fff;}.cls-1,.cls-2{opacity:0.3;}.cls-3{opacity:0.6;}</style></defs><title>Financial_Gauger_Good</title><g id="Layer_2" data-name="Layer 2"><g id="Layer_1-2" data-name="Layer 1"><circle class="cls-1" cx="957.3" cy="137.24" r="1.93"/><rect class="cls-1" x="968.88" y="128.1" width="16.12" height="1.41" rx="0.7" ry="0.7" transform="translate(13.42 -77.66) rotate(4.58)"/><path class="cls-1" d="M945,136.6c-1.93,1.29-3.87,7.74-2.58,10.32s5.16,1.29,5.16,1.29,2.58,6.45,6.45,10.32a17.14,17.14,0,0,0,9,4.51s20,.64,23.86,0,12.25-4.51,13.54-16.77a18.12,18.12,0,0,0-13.54-20c-5.8-1.29-21.28-1.93-21.28-1.93s-7.81-5.58-12-4.8a.64.64,0,0,0-.42,1,16.93,16.93,0,0,1,2.76,8.35c-6.45,1.93-7.74,8.38-7.74,8.38A2.28,2.28,0,0,0,945,136.6Z"/><g class="cls-2"><path class="cls-3" d="M821,72.5a.89.89,0,0,0-1-1.22c-1.69.42-3.31-.67-6.41-1.83-5.2-2-10.27-7.42-15.48-9.37a13.55,13.55,0,0,0-4.43-1,3.27,3.27,0,0,0-3.05,2l-7.16,16.3a.77.77,0,0,0,.9,1.05,12.66,12.66,0,0,1,7.73.41c5.2,2,10.27,7.42,15.48,9.37a13.61,13.61,0,0,0,4.4,1,3.3,3.3,0,0,0,3.09-2Z"/><ellipse class="cls-4" cx="803.14" cy="73.78" rx="4.32" ry="4.71" transform="translate(288.01 694.36) rotate(-55.55)"/></g><g class="cls-2"><path class="cls-3" d="M886.85,103.57a1.13,1.13,0,0,0,0-2c-2-1-2.71-3.33-4.82-7-3.53-6.12-4.1-15.59-7.63-21.71a17.24,17.24,0,0,0-3.55-4.55,4.16,4.16,0,0,0-4.59-.53L846.05,78a1,1,0,0,0,0,1.76,16.11,16.11,0,0,1,7.26,6.65c3.53,6.12,4.1,15.59,7.63,21.71a17.32,17.32,0,0,0,3.52,4.53,4.2,4.2,0,0,0,4.65.54Z"/><ellipse class="cls-4" cx="868.31" cy="90.42" rx="5.5" ry="6" transform="translate(9 244.44) rotate(-16.11)"/></g><g class="cls-2"><path class="cls-3" d="M815.29,7.17A.85.85,0,0,0,813.77,7c-.86,1.44-2.68,1.81-5.57,3.14-4.84,2.23-12,2-16.82,4.24a13,13,0,0,0-3.66,2.36,3.13,3.13,0,0,0-.71,3.41l6.29,15.87a.74.74,0,0,0,1.32.1,12.15,12.15,0,0,1,5.49-5c4.84-2.23,12-2,16.82-4.24a13.06,13.06,0,0,0,3.64-2.34,3.17,3.17,0,0,0,.72-3.45Z"/><ellipse class="cls-4" cx="804.15" cy="20.19" rx="4.52" ry="4.15" transform="translate(10.67 152.29) rotate(-10.89)"/></g><g class="cls-2"><path class="cls-3" d="M707.37,14.12A.93.93,0,0,0,706.14,13c-1.7.69-3.55-.2-6.95-.95-5.71-1.25-11.81-6.19-17.53-7.44a14.26,14.26,0,0,0-4.76-.37A3.44,3.44,0,0,0,674,6.75L669,24.8a.81.81,0,0,0,1.09,1A13.33,13.33,0,0,1,678.2,25c5.71,1.25,11.81,6.19,17.53,7.44a14.33,14.33,0,0,0,4.73.37,3.48,3.48,0,0,0,2.92-2.54Z"/><ellipse class="cls-4" cx="689" cy="18.12" rx="4.55" ry="4.96" transform="translate(367.83 627.96) rotate(-63.73)"/></g><g class="cls-2"><path class="cls-3" d="M621.55,22.51a.7.7,0,0,0,0-1.25c-1.23-.61-1.65-2.07-2.93-4.34-2.14-3.81-2.42-9.65-4.56-13.46A10.65,10.65,0,0,0,611.91.63a2.57,2.57,0,0,0-2.83-.36L596.54,6.44a.6.6,0,0,0,0,1.09A10,10,0,0,1,601,11.68c2.14,3.81,2.42,9.65,4.56,13.46A10.7,10.7,0,0,0,607.68,28a2.59,2.59,0,0,0,2.87.36Z"/><ellipse class="cls-4" cx="610.19" cy="14.27" rx="3.39" ry="3.7" transform="translate(18.27 163.16) rotate(-15.46)"/></g><g class="cls-2"><path class="cls-3" d="M911.65,49.77a.93.93,0,0,0-.81-1.46c-1.83.11-3.3-1.32-6.28-3.12-5-3-9.22-9.64-14.23-12.65a14.27,14.27,0,0,0-4.4-1.87,3.44,3.44,0,0,0-3.53,1.46l-10.52,15.5a.81.81,0,0,0,.73,1.26,13.33,13.33,0,0,1,7.92,1.9c5,3,9.22,9.64,14.23,12.65a14.33,14.33,0,0,0,4.37,1.86,3.47,3.47,0,0,0,3.58-1.48Z"/><ellipse class="cls-4" cx="892.96" cy="47.69" rx="4.55" ry="4.96" transform="translate(228.94 646.63) rotate(-45.11)"/></g><g class="cls-2"><path class="cls-3" d="M725.53,58.62a1.13,1.13,0,0,0-2,.25c-.71,2.1-3,3.1-6.34,5.63-5.65,4.25-15,6-20.62,10.21a17.24,17.24,0,0,0-4.09,4.08,4.16,4.16,0,0,0,0,4.62l12.6,18.81a1,1,0,0,0,1.74-.25,16.11,16.11,0,0,1,5.71-8c5.65-4.25,15-6,20.62-10.21a17.32,17.32,0,0,0,4.07-4,4.2,4.2,0,0,0,0-4.68Z"/><ellipse class="cls-4" cx="714.73" cy="78.61" rx="6" ry="5.5" transform="translate(26.41 286.53) rotate(-23.08)"/></g><g class="cls-2"><path class="cls-3" d="M941,97.7a.85.85,0,0,0-.79-1.3c-1.67.16-3-1.1-5.82-2.64-4.66-2.58-8.7-8.48-13.36-11.07a13,13,0,0,0-4.06-1.56,3.13,3.13,0,0,0-3.17,1.44L904.66,97a.74.74,0,0,0,.71,1.13,12.15,12.15,0,0,1,7.27,1.48c4.66,2.58,8.7,8.48,13.36,11.07a13.06,13.06,0,0,0,4,1.56,3.17,3.17,0,0,0,3.21-1.46Z"/><ellipse class="cls-4" cx="923.86" cy="96.4" rx="4.15" ry="4.52" transform="translate(224.47 707.68) rotate(-47.11)"/></g><g class="cls-2"><path class="cls-3" d="M947.83,74.58a.74.74,0,0,0,.94-.94c-.48-1.37.29-2.8,1-5.47,1.2-4.48,5.33-9.14,6.53-13.62a11.32,11.32,0,0,0,.46-3.76,2.73,2.73,0,0,0-1.88-2.38l-14.12-4.63a.64.64,0,0,0-.8.83,10.58,10.58,0,0,1,.29,6.46c-1.2,4.48-5.33,9.14-6.53,13.62a11.37,11.37,0,0,0-.47,3.74,2.76,2.76,0,0,0,1.91,2.41Z"/><ellipse class="cls-4" cx="945.33" cy="59.87" rx="3.94" ry="3.61" transform="translate(436.06 858.54) rotate(-61.1)"/></g><g class="cls-2"><path class="cls-3" d="M982.64,106.51a.7.7,0,0,0,0-1.25c-1.23-.61-1.65-2.07-2.93-4.34-2.14-3.81-2.42-9.65-4.56-13.46A10.65,10.65,0,0,0,973,84.63a2.57,2.57,0,0,0-2.83-.36l-12.55,6.17a.6.6,0,0,0,0,1.09,10,10,0,0,1,4.44,4.15c2.14,3.81,2.42,9.65,4.56,13.46a10.7,10.7,0,0,0,2.14,2.82,2.59,2.59,0,0,0,2.87.36Z"/><ellipse class="cls-4" cx="971.29" cy="98.27" rx="3.39" ry="3.7" transform="translate(8.95 262.45) rotate(-15.46)"/></g><g class="cls-2"><path class="cls-3" d="M394.61,84.78a.76.76,0,0,0-.86-1c-1.45.36-2.82-.57-5.47-1.56-4.44-1.67-8.77-6.33-13.21-8a11.57,11.57,0,0,0-3.78-.84,2.79,2.79,0,0,0-2.6,1.68l-6.11,13.91a.65.65,0,0,0,.77.9,10.81,10.81,0,0,1,6.59.35c4.44,1.67,8.77,6.33,13.21,8a11.62,11.62,0,0,0,3.76.84,2.82,2.82,0,0,0,2.64-1.7Z"/><ellipse class="cls-4" cx="379.4" cy="85.87" rx="3.69" ry="4.02" transform="translate(93.98 350.17) rotate(-55.55)"/></g><g class="cls-2"><path class="cls-3" d="M247.35,69a.73.73,0,0,0-1.28.22c-.39,1.37-1.81,2.08-3.9,3.82-3.5,2.91-9.44,4.3-12.93,7.21a11.09,11.09,0,0,0-2.5,2.75,2.68,2.68,0,0,0,.16,3l8.69,11.7a.63.63,0,0,0,1.11-.21,10.37,10.37,0,0,1,3.42-5.33c3.5-2.91,9.44-4.3,12.93-7.21a11.14,11.14,0,0,0,2.49-2.73,2.7,2.7,0,0,0-.17-3Z"/><ellipse class="cls-4" cx="241.04" cy="82.16" rx="3.86" ry="3.54" transform="translate(-11.69 113.45) rotate(-25.88)"/></g><g class="cls-2"><path class="cls-3" d="M139.9,28.59a.67.67,0,0,0-.35-1.14c-1.29-.2-2.1-1.41-3.91-3.11-3-2.85-5-8.09-8-10.94a10.17,10.17,0,0,0-2.78-2,2.45,2.45,0,0,0-2.68.49l-9.64,9.23a.58.58,0,0,0,.32,1,9.5,9.5,0,0,1,5.24,2.5c3,2.85,5,8.09,8,10.94a10.21,10.21,0,0,0,2.77,1.95,2.48,2.48,0,0,0,2.71-.49Z"/><ellipse class="cls-4" cx="127.18" cy="24.35" rx="3.24" ry="3.54" transform="matrix(0.84, -0.54, 0.54, 0.84, 7.27, 73.24)"/></g><g class="cls-2"><path class="cls-3" d="M287.53,50.06a.73.73,0,0,0-.67-1.11c-1.42.13-2.6-.94-5-2.25-4-2.21-7.43-7.24-11.4-9.45A11.09,11.09,0,0,0,267,35.92a2.67,2.67,0,0,0-2.71,1.23l-7.76,12.33a.63.63,0,0,0,.6,1,10.37,10.37,0,0,1,6.21,1.26c4,2.21,7.43,7.24,11.4,9.45a11.14,11.14,0,0,0,3.44,1.33A2.7,2.7,0,0,0,281,61.23Z"/><ellipse class="cls-4" cx="272.95" cy="48.95" rx="3.54" ry="3.86" transform="translate(51.32 215.62) rotate(-47.11)"/></g><g class="cls-2"><path class="cls-3" d="M193,62a.77.77,0,0,0,0-1.39c-1.37-.67-1.83-2.3-3.25-4.82-2.38-4.23-2.69-10.72-5.06-14.95a11.83,11.83,0,0,0-2.4-3.15,2.85,2.85,0,0,0-3.14-.4l-13.93,6.85a.67.67,0,0,0,0,1.21,11.05,11.05,0,0,1,4.93,4.61c2.38,4.23,2.69,10.72,5.06,14.95A11.88,11.88,0,0,0,177.59,68a2.88,2.88,0,0,0,3.18.41Z"/><ellipse class="cls-4" cx="180.37" cy="52.81" rx="3.77" ry="4.11" transform="matrix(0.96, -0.27, 0.27, 0.96, -7.55, 49.99)"/></g><g class="cls-2"><path class="cls-3" d="M567,19.52a1,1,0,0,0-1.75-.62c-1.45,1.44-3.72,1.32-7.53,2-6.39,1.16-14.76-1.28-21.15-.12a15.84,15.84,0,0,0-5,1.66,3.82,3.82,0,0,0-1.88,3.81l2.59,20.65a.9.9,0,0,0,1.53.52,14.8,14.8,0,0,1,8-4.22c6.39-1.16,14.76,1.28,21.15.12a15.91,15.91,0,0,0,5-1.65,3.86,3.86,0,0,0,1.9-3.86Z"/><ellipse class="cls-4" cx="549.88" cy="31.49" rx="5.05" ry="5.51" transform="translate(484.11 578.33) rotate(-86.42)"/></g><g class="cls-2"><path class="cls-3" d="M427.64,68.18a.82.82,0,0,0,1-1c-.54-1.53.32-3.11,1.11-6.08,1.33-5,5.92-10.15,7.26-15.13a12.57,12.57,0,0,0,.52-4.18,3,3,0,0,0-2.09-2.64L419.79,34a.71.71,0,0,0-.89.92,11.75,11.75,0,0,1,.32,7.17c-1.33,5-5.92,10.15-7.26,15.13a12.63,12.63,0,0,0-.52,4.15A3.06,3.06,0,0,0,413.56,64Z"/><ellipse class="cls-4" cx="424.86" cy="51.84" rx="4.37" ry="4.01" transform="translate(174.15 398.74) rotate(-61.1)"/></g><g class="cls-2"><path class="cls-3" d="M594,86a.77.77,0,0,0,0-1.39c-1.37-.67-1.83-2.3-3.25-4.82C588.35,75.54,588,69,585.66,64.82a11.83,11.83,0,0,0-2.4-3.15,2.85,2.85,0,0,0-3.14-.4l-13.93,6.85a.67.67,0,0,0,0,1.21,11.05,11.05,0,0,1,4.93,4.61c2.38,4.23,2.69,10.72,5.06,14.95A11.88,11.88,0,0,0,578.57,92a2.88,2.88,0,0,0,3.18.41Z"/><ellipse class="cls-4" cx="581.35" cy="76.81" rx="3.77" ry="4.11" transform="matrix(0.96, -0.27, 0.27, 0.96, 0.56, 157.74)"/></g><g class="cls-2"><path class="cls-3" d="M340.36,87.55a.77.77,0,0,0-.88-1.06c-1.46.36-2.86-.58-5.54-1.58-4.5-1.69-8.88-6.41-13.38-8.1a11.72,11.72,0,0,0-3.83-.86,2.83,2.83,0,0,0-2.64,1.7L307.9,91.75a.66.66,0,0,0,.78.91,11,11,0,0,1,6.68.35c4.5,1.69,8.88,6.41,13.38,8.1a11.77,11.77,0,0,0,3.81.86,2.86,2.86,0,0,0,2.67-1.73Z"/><ellipse class="cls-4" cx="324.95" cy="88.66" rx="3.74" ry="4.08" transform="translate(68.03 306.48) rotate(-55.55)"/></g><g class="cls-2"><path class="cls-3" d="M339.94,43.17a1,1,0,0,0,.38-1.71c-1.5-1.19-1.65-3.33-2.72-6.8-1.81-5.84-.47-13.93-2.28-19.77a14.91,14.91,0,0,0-2.12-4.52A3.59,3.59,0,0,0,329.44,9l-19,4.75a.84.84,0,0,0-.31,1.49,13.93,13.93,0,0,1,4.85,7c1.81,5.84.47,13.93,2.28,19.77a15,15,0,0,0,2.1,4.49,3.63,3.63,0,0,0,3.82,1.34Z"/><ellipse class="cls-4" cx="326.83" cy="28.53" rx="4.75" ry="5.19" transform="translate(-1.1 18.91) rotate(-3.31)"/></g><g class="cls-2"><path class="cls-3" d="M397.15,11a.74.74,0,0,0-1.31-.12c-.74,1.24-2.32,1.56-4.81,2.71-4.18,1.93-10.36,1.74-14.55,3.67a11.24,11.24,0,0,0-3.17,2,2.71,2.71,0,0,0-.62,2.95l5.44,13.73a.64.64,0,0,0,1.15.08A10.51,10.51,0,0,1,384,31.71c4.18-1.93,10.36-1.74,14.55-3.67a11.29,11.29,0,0,0,3.15-2,2.74,2.74,0,0,0,.62-3Z"/><ellipse class="cls-4" cx="387.51" cy="22.23" rx="3.91" ry="3.58" transform="translate(2.78 73.61) rotate(-10.89)"/></g><g class="cls-2"><path class="cls-3" d="M483.92,36.27a.64.64,0,0,0,.81-.81c-.42-1.19.25-2.42.87-4.73,1-3.88,4.61-7.9,5.65-11.78a9.79,9.79,0,0,0,.4-3.25A2.36,2.36,0,0,0,490,13.64l-12.21-4a.55.55,0,0,0-.69.72,9.15,9.15,0,0,1,.25,5.58c-1,3.88-4.61,7.9-5.65,11.78a9.83,9.83,0,0,0-.4,3.23A2.38,2.38,0,0,0,473,33Z"/><ellipse class="cls-4" cx="481.76" cy="23.55" rx="3.4" ry="3.12" transform="translate(228.32 433.93) rotate(-61.1)"/></g><g class="cls-2"><path class="cls-3" d="M511.72,80.56a.6.6,0,0,0,.66-.85c-.53-1.06-.05-2.29.26-4.52.52-3.74,3.38-7.91,3.9-11.65a9.21,9.21,0,0,0,0-3.08,2.22,2.22,0,0,0-1.76-1.73l-11.87-2.31a.52.52,0,0,0-.56.75,8.6,8.6,0,0,1,.88,5.18c-.52,3.74-3.38,7.91-3.9,11.65a9.25,9.25,0,0,0,0,3.06,2.24,2.24,0,0,0,1.78,1.75Z"/><ellipse class="cls-4" cx="508.22" cy="68.94" rx="3.2" ry="2.94" transform="translate(255.75 515.36) rotate(-68.24)"/></g><g class="cls-2"><path class="cls-3" d="M653,45.67a.88.88,0,0,0-1.57-.14c-.88,1.48-2.77,1.87-5.74,3.24-5,2.3-12.36,2.07-17.35,4.38a13.41,13.41,0,0,0-3.78,2.43,3.23,3.23,0,0,0-.74,3.52l6.49,16.37a.76.76,0,0,0,1.37.1,12.53,12.53,0,0,1,5.66-5.15c5-2.3,12.36-2.07,17.35-4.38a13.47,13.47,0,0,0,3.76-2.41,3.27,3.27,0,0,0,.75-3.56Z"/><ellipse class="cls-4" cx="641.55" cy="59.1" rx="4.66" ry="4.28" transform="translate(0.39 122.27) rotate(-10.89)"/></g><g class="cls-2"><path class="cls-3" d="M119.9,74.63a1,1,0,0,0-1.16-1.4c-1.94.48-3.79-.76-7.34-2.09-6-2.24-11.77-8.5-17.72-10.73a15.52,15.52,0,0,0-5.07-1.13,3.74,3.74,0,0,0-3.5,2.26l-8.2,18.67a.88.88,0,0,0,1,1.21,14.51,14.51,0,0,1,8.85.47c6,2.24,11.77,8.5,17.72,10.73a15.59,15.59,0,0,0,5,1.13,3.78,3.78,0,0,0,3.54-2.29Z"/><ellipse class="cls-4" cx="99.49" cy="76.1" rx="4.95" ry="5.4" transform="matrix(0.57, -0.82, 0.82, 0.57, -19.54, 115.1)"/></g><g class="cls-2"><path class="cls-3" d="M38.54,55.94a1.07,1.07,0,0,0-1.81-.64c-1.49,1.48-3.84,1.36-7.76,2.07-6.59,1.2-15.22-1.32-21.81-.12A16.34,16.34,0,0,0,2,59,3.94,3.94,0,0,0,0,62.89L2.7,84.18a.92.92,0,0,0,1.58.53,15.27,15.27,0,0,1,8.25-4.36c6.59-1.2,15.22,1.32,21.81.12a16.41,16.41,0,0,0,5.17-1.7,4,4,0,0,0,2-4Z"/><ellipse class="cls-4" cx="20.89" cy="68.28" rx="5.21" ry="5.68" transform="translate(-48.57 84.87) rotate(-86.42)"/></g><g class="cls-2"><path class="cls-3" d="M169,81.92a.79.79,0,0,0-1.32-.51c-1.13,1.07-2.86.94-5.78,1.39-4.89.77-11.23-1.24-16.13-.47a12.09,12.09,0,0,0-3.87,1.18,2.91,2.91,0,0,0-1.5,2.87l1.6,15.79a.68.68,0,0,0,1.16.42,11.29,11.29,0,0,1,6.18-3.08c4.89-.77,11.23,1.24,16.13.47a12.14,12.14,0,0,0,3.85-1.17,2.94,2.94,0,0,0,1.52-2.91Z"/><ellipse class="cls-4" cx="155.69" cy="90.74" rx="3.85" ry="4.2" transform="translate(51.87 238.03) rotate(-85.06)"/></g><g class="cls-2"><path class="cls-3" d="M62.59,36.68a.66.66,0,0,0,.83-.84c-.43-1.23.25-2.5.89-4.88,1.07-4,4.76-8.15,5.83-12.15a10.1,10.1,0,0,0,.41-3.35,2.43,2.43,0,0,0-1.68-2.12L56.28,9.21a.57.57,0,0,0-.72.74,9.43,9.43,0,0,1,.25,5.76c-1.07,4-4.76,8.15-5.83,12.15a10.14,10.14,0,0,0-.42,3.33,2.46,2.46,0,0,0,1.7,2.15Z"/><ellipse class="cls-4" cx="60.35" cy="23.56" rx="3.51" ry="3.22" transform="translate(10.56 65.01) rotate(-61.1)"/></g><g class="cls-2"><path class="cls-3" d="M470.25,66.22a.92.92,0,0,0-1.63-.14c-.92,1.55-2.89,1.94-6,3.37-5.2,2.4-12.89,2.16-18.09,4.56a14,14,0,0,0-3.94,2.53,3.37,3.37,0,0,0-.77,3.67l6.76,17.07a.79.79,0,0,0,1.42.1,13.06,13.06,0,0,1,5.9-5.37c5.2-2.4,12.89-2.16,18.09-4.56a14,14,0,0,0,3.92-2.51,3.41,3.41,0,0,0,.78-3.71Z"/><ellipse class="cls-4" cx="458.27" cy="80.22" rx="4.86" ry="4.46" transform="translate(-6.9 88.02) rotate(-10.89)"/></g><g class="cls-2"><path class="cls-3" d="M227.35,6a.73.73,0,0,0-1.28.22c-.39,1.37-1.81,2.08-3.9,3.82-3.5,2.91-9.44,4.3-12.93,7.21a11.09,11.09,0,0,0-2.5,2.75,2.68,2.68,0,0,0,.16,3l8.69,11.7a.63.63,0,0,0,1.11-.21,10.37,10.37,0,0,1,3.42-5.33c3.5-2.91,9.44-4.3,12.93-7.21a11.14,11.14,0,0,0,2.49-2.73,2.7,2.7,0,0,0-.17-3Z"/><ellipse class="cls-4" cx="221.04" cy="19.16" rx="3.86" ry="3.54" transform="translate(13.8 98.4) rotate(-25.88)"/></g><g class="cls-2"><path class="cls-3" d="M748.72,43.56a.6.6,0,0,0,.66-.85c-.53-1.06-.05-2.29.26-4.52.52-3.74,3.38-7.91,3.9-11.65a9.21,9.21,0,0,0,0-3.08,2.22,2.22,0,0,0-1.76-1.73l-11.87-2.31a.52.52,0,0,0-.56.75,8.6,8.6,0,0,1,.88,5.18c-.52,3.74-3.38,7.91-3.9,11.65a9.25,9.25,0,0,0,0,3.06,2.24,2.24,0,0,0,1.78,1.75Z"/><ellipse class="cls-4" cx="745.22" cy="31.94" rx="3.2" ry="2.94" transform="translate(439.23 712.19) rotate(-68.24)"/></g><g class="cls-2"><path class="cls-3" d="M848.72,49.56a.6.6,0,0,0,.66-.85c-.53-1.06-.05-2.29.26-4.52.52-3.74,3.38-7.91,3.9-11.65a9.21,9.21,0,0,0,0-3.08,2.22,2.22,0,0,0-1.76-1.73l-11.87-2.31a.52.52,0,0,0-.56.75,8.6,8.6,0,0,1,.88,5.18c-.52,3.74-3.38,7.91-3.9,11.65a9.25,9.25,0,0,0,0,3.06,2.24,2.24,0,0,0,1.78,1.75Z"/><ellipse class="cls-4" cx="845.22" cy="37.94" rx="3.2" ry="2.94" transform="translate(496.58 808.83) rotate(-68.24)"/></g></g></g></svg>