<?xml version="1.0" encoding="utf-8"?>
<!-- Generator: Adobe Illustrator 21.0.0, SVG Export Plug-In . SVG Version: 6.00 Build 0)  -->
<svg version="1.1" id="Layer_1" xmlns="http://www.w3.org/2000/svg" xmlns:xlink="http://www.w3.org/1999/xlink" x="0px" y="0px"
	 viewBox="0 0 1073 342" style="enable-background:new 0 0 1073 342;" xml:space="preserve">
<style type="text/css">
	.st0{fill:#FFFFFF;}
</style>
<g id="XMLID_132_">
	<g>
		<path class="st0" d="M475.6,96.8v135.8h79.4v15.9h-99V96.8H475.6z"/>
		<path class="st0" d="M570.9,214.9c0-22.8,15.1-34.3,45.2-34.3c9.7,0,19.4,0.7,29.1,2.1v-10.5c0-12.8-10-19.2-30-19.2
			c-11.5,0-23.2,1.8-35.2,5.3v-15.9c12-3.5,23.8-5.3,35.2-5.3c33.1,0,49.7,11.5,49.7,34.6v76.8h-11l-6.8-11
			c-11.1,7.4-23.2,11-36.3,11C584.1,248.6,570.9,237.4,570.9,214.9z M616.1,196.6c-17,0-25.6,6-25.6,18c0,12,6.7,18,20.2,18
			c13.6,0,25.1-3.6,34.5-10.8v-23.1C635.4,197.3,625.8,196.6,616.1,196.6z"/>
		<path class="st0" d="M684.4,137.2h19.8l19.7,87.3l29-87.3h17.7l31,87.3l17.8-87.3h20.8l-29.1,111.4h-17.9l-31.9-83.3L731,248.6
			h-18.4L684.4,137.2z"/>
		<path class="st0" d="M854.6,214.9c0-22.8,15.1-34.3,45.2-34.3c9.7,0,19.4,0.7,29.1,2.1v-10.5c0-12.8-10-19.2-30-19.2
			c-11.5,0-23.2,1.8-35.2,5.3v-15.9c12-3.5,23.8-5.3,35.2-5.3c33.1,0,49.7,11.5,49.7,34.6v76.8h-11l-6.8-11
			c-11.1,7.4-23.2,11-36.3,11C867.9,248.6,854.6,237.4,854.6,214.9z M899.8,196.6c-17,0-25.6,6-25.6,18c0,12,6.7,18,20.2,18
			c13.6,0,25.1-3.6,34.5-10.8v-23.1C919.2,197.3,909.5,196.6,899.8,196.6z"/>
		<path class="st0" d="M967.1,137.2h21.3l31.5,87l32.6-87h20.8L1027,251.9c-8.2,20.2-20.5,32.9-36.9,37.9l-7.5-13.9
			c12.4-5.4,21.5-14.3,27.2-26.6L967.1,137.2z"/>
	</g>
	<path id="XMLID_133_" class="st0" d="M270.9,62.5l-66.8-8.2c-4.1-0.5-7.8,2.4-8.3,6.5c-0.5,4.1,2.4,7.8,6.5,8.4l66.8,8.2
		c12.3,1.5,21,12.7,19.5,25.1l-25.1,204.6c-1.5,12.3-12.7,21.1-25,19.6L34.5,301.6c-12.3-1.5-21-12.7-19.5-25.1L44.6,34.7
		c1.5-12.3,12.7-21.1,25-19.6l66.6,8.2l0,0c0,0,0.1,0,0.1,0l0,0c11.4,1.4,19.7,11.1,19.7,22.3h0l0,128.1l-18.6,18.7l-18.6-18.7V68.1
		h18.7c4.1,0,7.5-3.4,7.5-7.5c0-4.1-3.3-7.5-7.5-7.5h-26.2c-4.1,0-7.5,3.4-7.5,7.5v116.2h0c0,0,0,0,0,0c0,2.1,0.9,4,2.3,5.4l25.9,26
		c1.4,1.4,3.3,2.3,5.4,2.3c2,0,3.9-0.8,5.2-2.1l0,0l26.2-26.3l0,0c1.3-1.4,2.1-3.2,2.1-5.3V45.6h0c0-18.7-13.8-34.8-32.7-37.2l0,0
		l-0.1,0c0,0,0,0,0,0l0,0L71.4,0.2C50.9-2.3,32.2,12.3,29.7,32.8L0.1,274.7c-2.5,20.5,12.1,39.2,32.6,41.8l204.1,25.1
		c20.5,2.5,39.1-12.1,41.7-32.6l25.1-204.6C306,83.8,291.4,65.1,270.9,62.5z"/>
</g>
</svg>
