<svg xmlns="http://www.w3.org/2000/svg" viewBox="0 0 87 100"><defs><style>.cls-1{fill:#fff;}.cls-2{fill:#034ea2;}.cls-3{fill:#0069cc;}.cls-4{fill:#ed1c24;}</style></defs><title>france_connect</title><g id="Layer_2" data-name="Layer 2"><g id="Calque_1" data-name="Calque 1"><polygon class="cls-1" points="1.39 25.9 1.39 74.24 43.36 98.48 85.47 74.24 85.47 25.9 43.36 1.66 1.39 25.9"/><path class="cls-2" d="M43.36,0,0,25.07v50L43.5,100,87,75.07v-50ZM85.47,74.24,43.36,98.48l-42-24.24V25.9l42-24.24L85.47,25.9Z"/><polygon class="cls-3" points="63.37 24.24 44.33 13.3 25.29 24.24 12.37 31.72 12.37 31.72 12.37 68.42 12.37 68.42 44.33 86.84 76.3 68.42 76.3 68.42 76.3 31.72 76.3 31.72 63.37 24.24"/><polygon class="cls-2" points="65.74 50 54.2 30.19 44.33 13.3 44.33 36.43 44.33 86.84 76.3 68.42 76.3 68.42 65.74 50"/><polygon class="cls-3" points="54.2 30.19 65.74 50 76.3 31.72 76.3 31.72 63.37 24.24 54.2 30.19"/><polygon class="cls-4" points="63.37 24.24 44.33 13.3 54.2 30.19 63.37 24.24"/><path class="cls-3" d="M54.2,30.19,44.33,13.3Z"/><rect class="cls-3" x="59.9" y="28.67" height="22.99"/><polygon class="cls-4" points="76.3 68.42 76.3 31.72 65.74 50 76.3 68.42"/><path class="cls-4" d="M65.74,50,76.3,68.42Z"/><polygon class="cls-3" points="23.07 50 34.6 30.19 44.33 13.3 44.33 36.43 44.33 86.84 12.37 68.42 12.37 68.42 23.07 50"/><polygon class="cls-4" points="34.6 30.19 23.07 50 12.37 31.72 12.37 31.72 25.29 24.24 34.6 30.19"/><polygon class="cls-2" points="25.29 24.24 44.33 13.3 34.6 30.19 25.29 24.24"/><path class="cls-3" d="M34.61,30.19l9.73-16.9Z"/><rect class="cls-3" x="28.77" y="28.67" height="22.99"/><polygon class="cls-2" points="12.37 68.42 12.37 31.72 23.07 50 12.37 68.42"/><path class="cls-3" d="M23.07,50,12.37,68.42Z"/><path class="cls-2" d="M56.15,53.6a6.72,6.72,0,0,1,1.67,0c.42.14,1,.14,1,.28-.14.83-1.39,1-1.95,1.8h-.28c-.28.14-.14.69-.42.69s-.56,0-1,.14a1.66,1.66,0,0,0,1.53.55c.14,0,.28.14.28.42a.14.14,0,0,0,.14-.14c.14,0,.14,0,.14.14v.42c-.28.42-.83.28-1.25.28a6.76,6.76,0,0,0,2.36,0c.56-.28,0-1.25.42-1.66-.14,0,0-.28-.28-.28.14-.14.42-.55.56-.55s.56-.14.56-.28-.42-.28-.28-.55c.56-.42,1.11-1,.83-1.66-.14-.28-1-.28-1.39-.42a3.43,3.43,0,0,0-1.67.14,6.28,6.28,0,0,0-1.53.42,13.9,13.9,0,0,0-1.95,1.11C54.62,54,55.31,53.88,56.15,53.6Z"/><path class="cls-1" d="M63.93,59.7a10.57,10.57,0,0,0-1.11-1.52,6,6,0,0,1-1.11-2.08,6.7,6.7,0,0,1,0-2.35,15.65,15.65,0,0,0-.83-4.43c-.28-.69-.42-1.52-.69-2.22a4.91,4.91,0,0,0-.56-1.25.63.63,0,0,1,0-.69A4.22,4.22,0,0,0,60.73,44a1.26,1.26,0,0,0-.42-1.52c-.69-.28-.56.69-1.11,1h-.28c-.14-.28.14-.42.28-.55s0-.28-.14-.28a1.62,1.62,0,0,1-1-.28,8.53,8.53,0,0,0-4-2.63,3.86,3.86,0,0,0,1.25.14,3.5,3.5,0,0,0,2.08-.28c.56-.28.56-1,.69-1.52.14-.14,0-.28,0-.55s-.28-.55-.42-.83a1.71,1.71,0,0,1-.28-.42C56.29,35,52,31.44,43.92,32a34.69,34.69,0,0,0-12.79,3.74c-.14,0-.28.14-.56.14a8.65,8.65,0,0,0-2.64,1.94,7.8,7.8,0,0,0-1.81,3.32,9.16,9.16,0,0,0-2.78,3.32c-.83,1.66-1.95,3-1.95,4.85v.28c.14.55.14,1,.28,1.52a28.28,28.28,0,0,1,.69,3.32l.42,1.66c.28.55,0,1.25.42,1.8.14.28.14.69.56.83v.42c.14.14.14.14.28.14v.42a15.5,15.5,0,0,1,2.36,2.91c.28.55-1,.28-1.53.14a11,11,0,0,1-2.5-1.94l-.14.14c.42.69,1.95,1.52,1.11,2.08-.42.28-1-.28-1.25.14-.14.14,0,.42,0,.55-.56-.42-1.25-.14-1.81-.42s-.56-.83-1-.83a17.58,17.58,0,0,0-3.89-.55h-.28a16.09,16.09,0,0,0-3.61-.14V63.3a14,14,0,0,1,3.34-.55h.28c.28,0,.69-.14,1,0a4.74,4.74,0,0,0-1.39.14,15.17,15.17,0,0,0-3.34,1v1.39c.56.14,1.25.14,1.81.28a11.61,11.61,0,0,1,2.08.55,13.67,13.67,0,0,1,2.5,1.11c.42.28.56.55,1,.83a1.77,1.77,0,0,0,1.67,0H21c1.53-.42,3.06-.83,4-2.08a.14.14,0,0,0,.14.14,8.78,8.78,0,0,1-.83,2.49c0,.14-.14.28.14.42h.14c-.14,0-.14,0-.14.14s.28,0,.42.14a1.87,1.87,0,0,0-1.25.69c0,.14.14.14.28.14-.14.14-.56.14-.56.28l.14.14c-.14,0-.14,0-.14.14v.28c-.28,0-.42.28-.56.28.42.28.69,0,1.11,0a29.79,29.79,0,0,1-3.06,1.39c-.14,0,0,.28-.14.28.28.14.56-.14.83-.14a10.37,10.37,0,0,1-1.67,1l3.34,1.94a15.74,15.74,0,0,0,3.75-3l.14.14a4.63,4.63,0,0,1-1.67,2.35c-.56.28-1,.83-1.39,1l2.5,1.39a6.58,6.58,0,0,1,1.67-1c.14,0,.28.14.56.14.83-.83,1.81-1.8,3.2-1.52,0,.14,0,.14.14.14h0a.14.14,0,0,0,.14-.14c0,.14,0,.14-.14.14-.42.28-.69.55-1.11.83-.14.14,0,.14.14.14a9.76,9.76,0,0,0,1.25-.83.51.51,0,0,0-.14.42,22.31,22.31,0,0,0-3.2,3l13.2,7.62c.42-.55,1-1.39,1.53-2.08A117.37,117.37,0,0,1,51,74.79a4.09,4.09,0,0,1,1.39-.42c1.67,0,3.47.42,5.14.55.14,0,.42.14.56.14A4.79,4.79,0,0,0,60,74.93a2.82,2.82,0,0,0,1.81-1.52,2.49,2.49,0,0,0,0-2.22c-.69-.83.56-1.25,1-1.8s-.28-.83-.28-1.25c-.14-.14-.56-.14-.69-.42.69-.28,1.81-1,1.25-1.8-.28-.55-.83-1.25-.28-1.8s1.81-.42,2.08-1.11C65.74,61.63,64.49,60.66,63.93,59.7Zm-4.31-5c-.14.14.28.28.28.55a1.06,1.06,0,0,1-.56.28l-.56.55c.14,0,0,.28.28.28-.42.55.28,1.52-.42,1.66a3.46,3.46,0,0,1-2.36,0c.42-.14,1,.14,1.25-.28v-.42a.14.14,0,0,0-.14-.14l-.14.14c0-.14-.28-.42-.28-.42a1.66,1.66,0,0,1-1.53-.55,1.14,1.14,0,0,1,1-.14c.28,0,.14-.55.42-.69h.28c.56-.83,1.81-1.11,1.95-1.8,0-.14-.56-.14-1-.28a6.72,6.72,0,0,0-1.67,0,10.44,10.44,0,0,0-2.22.69A8.87,8.87,0,0,1,56.15,53a6.28,6.28,0,0,1,1.53-.42,3.56,3.56,0,0,1,1.67-.14c.56.14,1.25.14,1.39.42A2.71,2.71,0,0,1,59.62,54.71Z"/></g></g></svg>