<svg xmlns="http://www.w3.org/2000/svg" viewBox="0 0 1733.31 151.89"><defs><style>.cls-1,.cls-2,.cls-3,.cls-4{fill:#f9f9f9;}.cls-1{opacity:0.65;}.cls-2{opacity:0.75;}.cls-3{opacity:0.6;}.cls-4{opacity:0.7;}</style></defs><title>Red</title><g id="Layer_2" data-name="Layer 2"><g id="Gauger_Example" data-name="Gauger Example"><g id="Layer_12" data-name="Layer 12"><g id="_1_5" data-name="1/5"><g id="Bubble"><g id="Red"><ellipse id="_Path_" data-name="&lt;Path&gt;" class="cls-1" cx="1153.53" cy="121.7" rx="10.72" ry="10.72"/><ellipse id="_Path_2" data-name="&lt;Path&gt;" class="cls-2" cx="1221.74" cy="55.15" rx="49.98" ry="50"/><ellipse id="_Path_3" data-name="&lt;Path&gt;" class="cls-2" cx="1212.53" cy="137.68" rx="14.2" ry="14.21"/><ellipse id="_Path_4" data-name="&lt;Path&gt;" class="cls-3" cx="885.66" cy="81.31" rx="37.48" ry="37.5"/><ellipse id="_Path_5" data-name="&lt;Path&gt;" class="cls-2" cx="923.14" cy="33.49" rx="10.72" ry="10.72"/><ellipse id="_Path_6" data-name="&lt;Path&gt;" class="cls-3" cx="833.77" cy="105.56" rx="10.72" ry="10.72"/><ellipse id="_Path_7" data-name="&lt;Path&gt;" class="cls-3" cx="245.75" cy="65.2" rx="49.98" ry="50"/><ellipse id="_Path_8" data-name="&lt;Path&gt;" class="cls-2" cx="195.78" cy="11.3" rx="10.72" ry="10.72"/><ellipse id="_Path_9" data-name="&lt;Path&gt;" class="cls-3" cx="319.78" cy="79.68" rx="10.72" ry="10.72"/></g><g id="Yellow_Red" data-name="Yellow/Red"><ellipse id="_Path_10" data-name="&lt;Path&gt;" class="cls-3" cx="1550.11" cy="89.45" rx="24.99" ry="25"/><ellipse id="_Path_11" data-name="&lt;Path&gt;" class="cls-2" cx="1520.01" cy="47.43" rx="10.72" ry="10.72"/><ellipse id="_Path_12" data-name="&lt;Path&gt;" class="cls-3" cx="574.59" cy="41.89" rx="24.99" ry="25"/><ellipse id="_Path_13" data-name="&lt;Path&gt;" class="cls-3" cx="591.25" cy="92.91" rx="10.72" ry="10.72"/></g><g id="Yellow"><ellipse id="_Path_14" data-name="&lt;Path&gt;" class="cls-1" cx="676.48" cy="40.81" rx="14.2" ry="14.21"/><ellipse id="_Path_15" data-name="&lt;Path&gt;" class="cls-2" cx="713.08" cy="99.3" rx="36.6" ry="36.62"/><ellipse id="_Path_16" data-name="&lt;Path&gt;" class="cls-3" cx="776.21" cy="54.54" rx="13.37" ry="13.38"/><ellipse id="_Path_17" data-name="&lt;Path&gt;" class="cls-1" cx="1354.68" cy="19.77" rx="11.55" ry="11.55"/><ellipse id="_Path_18" data-name="&lt;Path&gt;" class="cls-3" cx="1407.65" cy="47.43" rx="24.99" ry="25"/><ellipse id="_Path_19" data-name="&lt;Path&gt;" class="cls-2" cx="1334.86" cy="99.76" rx="10.72" ry="10.72"/><ellipse id="_Path_20" data-name="&lt;Path&gt;" class="cls-4" cx="1445.74" cy="86.3" rx="10.72" ry="10.72"/></g><g id="Green_Yellow"><ellipse id="_Path_21" data-name="&lt;Path&gt;" class="cls-2" cx="1655.09" cy="25.94" rx="18.25" ry="18.26"/><ellipse id="_Path_22" data-name="&lt;Path&gt;" class="cls-2" cx="1703.32" cy="80.4" rx="29.99" ry="30"/><ellipse id="_Path_23" data-name="&lt;Path&gt;" class="cls-2" cx="1641.49" cy="112.86" rx="11.55" ry="11.55"/><ellipse id="_Path_24" data-name="&lt;Path&gt;" class="cls-1" cx="473.88" cy="84.99" rx="10.72" ry="10.72"/><ellipse id="_Path_25" data-name="&lt;Path&gt;" class="cls-4" cx="427.93" cy="65.43" rx="24.99" ry="25"/><ellipse id="_Path_26" data-name="&lt;Path&gt;" class="cls-2" cx="396.69" cy="118.51" rx="10.72" ry="10.72"/></g><g id="Green"><circle id="_Path_27" data-name="&lt;Path&gt;" class="cls-3" cx="1033.76" cy="123.8" r="6.88"/><ellipse id="_Path_28" data-name="&lt;Path&gt;" class="cls-2" cx="1033.76" cy="34.22" rx="31.81" ry="31.82"/><ellipse id="_Path_29" data-name="&lt;Path&gt;" class="cls-3" cx="1077.12" cy="76.36" rx="11.55" ry="11.55"/><ellipse id="_Path_30" data-name="&lt;Path&gt;" class="cls-2" cx="91.69" cy="88.04" rx="10.72" ry="10.72"/><ellipse id="_Path_31" data-name="&lt;Path&gt;" class="cls-2" cx="67.28" cy="30" rx="29.99" ry="30"/><ellipse id="_Path_32" data-name="&lt;Path&gt;" class="cls-4" cx="14.2" cy="101.56" rx="14.2" ry="14.21"/></g></g></g></g></g></g></svg>