<svg xmlns="http://www.w3.org/2000/svg" viewBox="0 0 1920.1 80.02"><defs><style>.cls-1,.cls-2,.cls-3{fill:#fff;}.cls-1{opacity:0.4;}.cls-2{opacity:0.45;}.cls-3{opacity:0.6;}</style></defs><title>Wave</title><g id="Layer_2" data-name="Layer 2"><g id="Web"><g id="Wave"><path id="_Path_" data-name="&lt;Path&gt;" class="cls-1" d="M1920.1,55s-59.13-37.27-157-37c-68.37.19-172.72,39.78-262,40-120,.3-205-10-346-9s-159,9-287,8S745.81,18.48,641.8,18.48c-128.3,0-197.44,44-302.81,40S213.64,0,120.54,0,0,40.39,0,40.39V80l1920.1,0Z"/><path id="_Path_2" data-name="&lt;Path&gt;" class="cls-2" d="M1920.1,37s-139,29-325,31-302-50-434-42-120,40-221,41S830.45,35.24,741.77,37.62,600.71,53.4,552,53.71c-124.29.8-300.62-35.59-346-35.59C89.43,18.13,0,47.47,0,47.47V80l1920.1,0Z"/><path id="_Path_3" data-name="&lt;Path&gt;" class="cls-3" d="M1920.1,18s-25,31-163,31-130-49-262-49-175.22,60-334,61c-134.16.83-185.89-37.65-292.95-36.83S752.92,56.92,662.63,56.92c-110.66,0-181.86-36-283-36S195.58,58.52,128,56.88C44.86,54.86,0,40.82,0,40.82V80l1920.1,0Z"/></g></g></g></svg>